<svg id="visual" viewBox="0 0 900 600" width="900" height="600" xmlns="http://www.w3.org/2000/svg" xmlns:xlink="http://www.w3.org/1999/xlink" version="1.1"><g stroke-width="1" stroke-linejoin="bevel"><path d="M445 306L398 298L444 336.9Z" fill="#205a7a" stroke="#205a7a"></path><path d="M398 298L397 346.9L444 336.9Z" fill="#112e42" stroke="#112e42"></path><path d="M398 298L363 298L397 346.9Z" fill="#0c2435" stroke="#0c2435"></path><path d="M445 306L441 261.1L398 298Z" fill="#112e42" stroke="#112e42"></path><path d="M398 298L364 260.1L363 298Z" fill="#1d4e6b" stroke="#1d4e6b"></path><path d="M363 298L356 341.9L397 346.9Z" fill="#297ea6" stroke="#297ea6"></path><path d="M356 341.9L400 385.7L397 346.9Z" fill="#205a7a" stroke="#205a7a"></path><path d="M397 346.9L400 385.7L444 336.9Z" fill="#19435d" stroke="#19435d"></path><path d="M441 261.1L404 253.1L398 298Z" fill="#15384f" stroke="#15384f"></path><path d="M400 385.7L453 393.7L444 336.9Z" fill="#205a7a" stroke="#205a7a"></path><path d="M503 344.9L499 295L445 306Z" fill="#081a28" stroke="#081a28"></path><path d="M445 306L499 295L441 261.1Z" fill="#0c2435" stroke="#0c2435"></path><path d="M404 253.1L364 260.1L398 298Z" fill="#15384f" stroke="#15384f"></path><path d="M363 298L323 294L356 341.9Z" fill="#205a7a" stroke="#205a7a"></path><path d="M503 344.9L445 306L444 336.9Z" fill="#297ea6" stroke="#297ea6"></path><path d="M453 393.7L503 344.9L444 336.9Z" fill="#1d4e6b" stroke="#1d4e6b"></path><path d="M356 341.9L353 392.7L400 385.7Z" fill="#1d4e6b" stroke="#1d4e6b"></path><path d="M400 385.7L396 422.6L453 393.7Z" fill="#15384f" stroke="#15384f"></path><path d="M364 260.1L323 294L363 298Z" fill="#19435d" stroke="#19435d"></path><path d="M356 341.9L322 343.9L353 392.7Z" fill="#297ea6" stroke="#297ea6"></path><path d="M323 294L322 343.9L356 341.9Z" fill="#0c2435" stroke="#0c2435"></path><path d="M499 295L493 255.1L441 261.1Z" fill="#205a7a" stroke="#205a7a"></path><path d="M441 261.1L406 214.3L404 253.1Z" fill="#277297" stroke="#277297"></path><path d="M353 392.7L396 422.6L400 385.7Z" fill="#246688" stroke="#246688"></path><path d="M396 422.6L456 420.6L453 393.7Z" fill="#277297" stroke="#277297"></path><path d="M453 393.7L499 391.7L503 344.9Z" fill="#15384f" stroke="#15384f"></path><path d="M455 209.3L406 214.3L441 261.1Z" fill="#1d4e6b" stroke="#1d4e6b"></path><path d="M404 253.1L352 219.3L364 260.1Z" fill="#112e42" stroke="#112e42"></path><path d="M364 260.1L317 259.1L323 294Z" fill="#19435d" stroke="#19435d"></path><path d="M456 420.6L499 391.7L453 393.7Z" fill="#1d4e6b" stroke="#1d4e6b"></path><path d="M493 255.1L455 209.3L441 261.1Z" fill="#246688" stroke="#246688"></path><path d="M352 219.3L317 259.1L364 260.1Z" fill="#1d4e6b" stroke="#1d4e6b"></path><path d="M266 338.9L306 385.7L322 343.9Z" fill="#1d4e6b" stroke="#1d4e6b"></path><path d="M312 222.3L352 219.3L313 167.4Z" fill="#15384f" stroke="#15384f"></path><path d="M406 214.3L352 219.3L404 253.1Z" fill="#297ea6" stroke="#297ea6"></path><path d="M308 426.6L357 425.6L353 392.7Z" fill="#246688" stroke="#246688"></path><path d="M353 392.7L357 425.6L396 422.6Z" fill="#1d4e6b" stroke="#1d4e6b"></path><path d="M449 467.4L489 430.6L456 420.6Z" fill="#205a7a" stroke="#205a7a"></path><path d="M534 389.7L539 348.9L503 344.9Z" fill="#15384f" stroke="#15384f"></path><path d="M503 344.9L544 307L499 295Z" fill="#19435d" stroke="#19435d"></path><path d="M499 295L545 255.1L493 255.1Z" fill="#15384f" stroke="#15384f"></path><path d="M539 348.9L544 307L503 344.9Z" fill="#0c2435" stroke="#0c2435"></path><path d="M493 255.1L490 216.3L455 209.3Z" fill="#1d4e6b" stroke="#1d4e6b"></path><path d="M545 255.1L490 216.3L493 255.1Z" fill="#0c2435" stroke="#0c2435"></path><path d="M274 291L322 343.9L323 294Z" fill="#19435d" stroke="#19435d"></path><path d="M322 343.9L306 385.7L353 392.7Z" fill="#15384f" stroke="#15384f"></path><path d="M456 420.6L489 430.6L499 391.7Z" fill="#1d4e6b" stroke="#1d4e6b"></path><path d="M499 391.7L534 389.7L503 344.9Z" fill="#081a28" stroke="#081a28"></path><path d="M449 467.4L456 420.6L396 422.6Z" fill="#297ea6" stroke="#297ea6"></path><path d="M540 436.6L534 389.7L499 391.7Z" fill="#1d4e6b" stroke="#1d4e6b"></path><path d="M544 307L545 255.1L499 295Z" fill="#00101c" stroke="#00101c"></path><path d="M358 175.4L352 219.3L406 214.3Z" fill="#0c2435" stroke="#0c2435"></path><path d="M352 219.3L312 222.3L317 259.1Z" fill="#19435d" stroke="#19435d"></path><path d="M317 259.1L274 291L323 294Z" fill="#1d4e6b" stroke="#1d4e6b"></path><path d="M443 164.4L403 174.4L455 209.3Z" fill="#297ea6" stroke="#297ea6"></path><path d="M455 209.3L403 174.4L406 214.3Z" fill="#19435d" stroke="#19435d"></path><path d="M263 265.1L274 291L317 259.1Z" fill="#277297" stroke="#277297"></path><path d="M409 475.4L449 467.4L396 422.6Z" fill="#246688" stroke="#246688"></path><path d="M489 430.6L540 436.6L499 391.7Z" fill="#081a28" stroke="#081a28"></path><path d="M306 385.7L308 426.6L353 392.7Z" fill="#297ea6" stroke="#297ea6"></path><path d="M352 465.4L409 475.4L396 422.6Z" fill="#277297" stroke="#277297"></path><path d="M263 423.6L308 426.6L306 385.7Z" fill="#00101c" stroke="#00101c"></path><path d="M274 291L266 338.9L322 343.9Z" fill="#297ea6" stroke="#297ea6"></path><path d="M352 465.4L396 422.6L357 425.6Z" fill="#112e42" stroke="#112e42"></path><path d="M403 174.4L358 175.4L406 214.3Z" fill="#297ea6" stroke="#297ea6"></path><path d="M488 177.4L455 209.3L490 216.3Z" fill="#19435d" stroke="#19435d"></path><path d="M488 177.4L443 164.4L455 209.3Z" fill="#00101c" stroke="#00101c"></path><path d="M403 174.4L407 134.6L358 175.4Z" fill="#081a28" stroke="#081a28"></path><path d="M544 205.3L488 177.4L490 216.3Z" fill="#081a28" stroke="#081a28"></path><path d="M308 426.6L352 465.4L357 425.6Z" fill="#0c2435" stroke="#0c2435"></path><path d="M531 473.4L489 463.4L501 518.3Z" fill="#081a28" stroke="#081a28"></path><path d="M449 467.4L489 463.4L489 430.6Z" fill="#0c2435" stroke="#0c2435"></path><path d="M590 346.9L577 299L544 307Z" fill="#277297" stroke="#277297"></path><path d="M544 307L577 299L545 255.1Z" fill="#081a28" stroke="#081a28"></path><path d="M590 346.9L544 307L539 348.9Z" fill="#1d4e6b" stroke="#1d4e6b"></path><path d="M272 221.3L317 259.1L312 222.3Z" fill="#277297" stroke="#277297"></path><path d="M272 221.3L263 265.1L317 259.1Z" fill="#081a28" stroke="#081a28"></path><path d="M274 291L225 301L266 338.9Z" fill="#1d4e6b" stroke="#1d4e6b"></path><path d="M230 386.7L265 385.7L266 338.9Z" fill="#0c2435" stroke="#0c2435"></path><path d="M266 338.9L265 385.7L306 385.7Z" fill="#205a7a" stroke="#205a7a"></path><path d="M489 463.4L540 436.6L489 430.6Z" fill="#205a7a" stroke="#205a7a"></path><path d="M534 389.7L577 378.7L539 348.9Z" fill="#15384f" stroke="#15384f"></path><path d="M580 435.6L577 378.7L534 389.7Z" fill="#0c2435" stroke="#0c2435"></path><path d="M587 211.3L544 205.3L545 255.1Z" fill="#081a28" stroke="#081a28"></path><path d="M545 255.1L544 205.3L490 216.3Z" fill="#0c2435" stroke="#0c2435"></path><path d="M577 378.7L590 346.9L539 348.9Z" fill="#297ea6" stroke="#297ea6"></path><path d="M313 167.4L272 221.3L312 222.3Z" fill="#1d4e6b" stroke="#1d4e6b"></path><path d="M269 467.4L311 470.4L308 426.6Z" fill="#205a7a" stroke="#205a7a"></path><path d="M308 426.6L311 470.4L352 465.4Z" fill="#205a7a" stroke="#205a7a"></path><path d="M359 511.3L399 518.3L409 475.4Z" fill="#277297" stroke="#277297"></path><path d="M624 292L590 253.1L577 299Z" fill="#205a7a" stroke="#205a7a"></path><path d="M577 299L590 253.1L545 255.1Z" fill="#112e42" stroke="#112e42"></path><path d="M361 119.6L313 167.4L358 175.4Z" fill="#1d4e6b" stroke="#1d4e6b"></path><path d="M358 175.4L313 167.4L352 219.3Z" fill="#0c2435" stroke="#0c2435"></path><path d="M441 126.6L407 134.6L443 164.4Z" fill="#277297" stroke="#277297"></path><path d="M443 164.4L407 134.6L403 174.4Z" fill="#112e42" stroke="#112e42"></path><path d="M441 126.6L443 164.4L491 121.6Z" fill="#19435d" stroke="#19435d"></path><path d="M230 386.7L263 423.6L265 385.7Z" fill="#205a7a" stroke="#205a7a"></path><path d="M265 385.7L263 423.6L306 385.7Z" fill="#15384f" stroke="#15384f"></path><path d="M489 463.4L531 473.4L540 436.6Z" fill="#0c2435" stroke="#0c2435"></path><path d="M540 436.6L580 435.6L534 389.7Z" fill="#00101c" stroke="#00101c"></path><path d="M501 518.3L489 463.4L449 467.4Z" fill="#297ea6" stroke="#297ea6"></path><path d="M577 174.4L546 176.4L544 205.3Z" fill="#246688" stroke="#246688"></path><path d="M544 205.3L546 176.4L488 177.4Z" fill="#15384f" stroke="#15384f"></path><path d="M218 251.1L225 301L263 265.1Z" fill="#00101c" stroke="#00101c"></path><path d="M263 265.1L225 301L274 291Z" fill="#246688" stroke="#246688"></path><path d="M491 121.6L443 164.4L488 177.4Z" fill="#277297" stroke="#277297"></path><path d="M531 473.4L580 435.6L540 436.6Z" fill="#297ea6" stroke="#297ea6"></path><path d="M637 381.7L627 345.9L590 346.9Z" fill="#205a7a" stroke="#205a7a"></path><path d="M359 511.3L409 475.4L352 465.4Z" fill="#112e42" stroke="#112e42"></path><path d="M409 475.4L444 521.3L449 467.4Z" fill="#1d4e6b" stroke="#1d4e6b"></path><path d="M217 344.9L230 386.7L266 338.9Z" fill="#19435d" stroke="#19435d"></path><path d="M311 470.4L359 511.3L352 465.4Z" fill="#00101c" stroke="#00101c"></path><path d="M590 253.1L587 211.3L545 255.1Z" fill="#19435d" stroke="#19435d"></path><path d="M399 518.3L444 521.3L409 475.4Z" fill="#0c2435" stroke="#0c2435"></path><path d="M225 301L217 344.9L266 338.9Z" fill="#15384f" stroke="#15384f"></path><path d="M627 345.9L624 292L590 346.9Z" fill="#081a28" stroke="#081a28"></path><path d="M590 346.9L624 292L577 299Z" fill="#205a7a" stroke="#205a7a"></path><path d="M590 253.1L633 209.3L587 211.3Z" fill="#112e42" stroke="#112e42"></path><path d="M409 78.7L361 119.6L407 134.6Z" fill="#297ea6" stroke="#297ea6"></path><path d="M407 134.6L361 119.6L358 175.4Z" fill="#112e42" stroke="#112e42"></path><path d="M263 423.6L269 467.4L308 426.6Z" fill="#0c2435" stroke="#0c2435"></path><path d="M311 470.4L307 517.3L359 511.3Z" fill="#205a7a" stroke="#205a7a"></path><path d="M228 423.6L269 467.4L263 423.6Z" fill="#277297" stroke="#277297"></path><path d="M637 381.7L590 346.9L577 378.7Z" fill="#19435d" stroke="#19435d"></path><path d="M532 125.6L488 177.4L546 176.4Z" fill="#205a7a" stroke="#205a7a"></path><path d="M532 125.6L491 121.6L488 177.4Z" fill="#297ea6" stroke="#297ea6"></path><path d="M441 126.6L409 78.7L407 134.6Z" fill="#081a28" stroke="#081a28"></path><path d="M268 135.6L264 175.4L313 167.4Z" fill="#1d4e6b" stroke="#1d4e6b"></path><path d="M313 167.4L264 175.4L272 221.3Z" fill="#1d4e6b" stroke="#1d4e6b"></path><path d="M228 218.3L218 251.1L263 265.1Z" fill="#00101c" stroke="#00101c"></path><path d="M228 218.3L263 265.1L272 221.3Z" fill="#1d4e6b" stroke="#1d4e6b"></path><path d="M178 303L181 343.9L217 344.9Z" fill="#112e42" stroke="#112e42"></path><path d="M444 521.3L501 518.3L449 467.4Z" fill="#297ea6" stroke="#297ea6"></path><path d="M531 473.4L589 477.4L580 435.6Z" fill="#277297" stroke="#277297"></path><path d="M626 162.4L577 174.4L587 211.3Z" fill="#277297" stroke="#277297"></path><path d="M587 211.3L577 174.4L544 205.3Z" fill="#112e42" stroke="#112e42"></path><path d="M264 175.4L228 218.3L272 221.3Z" fill="#15384f" stroke="#15384f"></path><path d="M173 391.7L228 423.6L230 386.7Z" fill="#205a7a" stroke="#205a7a"></path><path d="M230 386.7L228 423.6L263 423.6Z" fill="#0c2435" stroke="#0c2435"></path><path d="M361 119.6L308 125.6L313 167.4Z" fill="#277297" stroke="#277297"></path><path d="M501 518.3L539 511.3L531 473.4Z" fill="#277297" stroke="#277297"></path><path d="M581 131.6L532 125.6L546 176.4Z" fill="#00101c" stroke="#00101c"></path><path d="M276 507.3L311 470.4L269 467.4Z" fill="#112e42" stroke="#112e42"></path><path d="M276 507.3L307 517.3L311 470.4Z" fill="#112e42" stroke="#112e42"></path><path d="M356 555.1L411 552.1L399 518.3Z" fill="#1d4e6b" stroke="#1d4e6b"></path><path d="M399 518.3L411 552.1L444 521.3Z" fill="#0c2435" stroke="#0c2435"></path><path d="M632 424.6L637 381.7L577 378.7Z" fill="#277297" stroke="#277297"></path><path d="M678 260.1L637 248.1L624 292Z" fill="#297ea6" stroke="#297ea6"></path><path d="M632 424.6L577 378.7L580 435.6Z" fill="#246688" stroke="#246688"></path><path d="M681 296L624 292L627 345.9Z" fill="#1d4e6b" stroke="#1d4e6b"></path><path d="M624 292L637 248.1L590 253.1Z" fill="#081a28" stroke="#081a28"></path><path d="M356 555.1L399 518.3L359 511.3Z" fill="#1d4e6b" stroke="#1d4e6b"></path><path d="M444 521.3L500 548.1L501 518.3Z" fill="#205a7a" stroke="#205a7a"></path><path d="M501 518.3L535 554.1L539 511.3Z" fill="#00101c" stroke="#00101c"></path><path d="M583 505.3L589 477.4L531 473.4Z" fill="#19435d" stroke="#19435d"></path><path d="M224 505.3L276 507.3L269 467.4Z" fill="#246688" stroke="#246688"></path><path d="M318 553.1L356 555.1L359 511.3Z" fill="#1d4e6b" stroke="#1d4e6b"></path><path d="M622 473.4L632 424.6L580 435.6Z" fill="#246688" stroke="#246688"></path><path d="M411 552.1L447 557.1L444 521.3Z" fill="#0c2435" stroke="#0c2435"></path><path d="M308 125.6L268 135.6L313 167.4Z" fill="#00101c" stroke="#00101c"></path><path d="M264 175.4L221 176.4L228 218.3Z" fill="#081a28" stroke="#081a28"></path><path d="M178 303L217 344.9L225 301Z" fill="#205a7a" stroke="#205a7a"></path><path d="M217 344.9L173 391.7L230 386.7Z" fill="#112e42" stroke="#112e42"></path><path d="M228 423.6L216 467.4L269 467.4Z" fill="#081a28" stroke="#081a28"></path><path d="M188 254.1L225 301L218 251.1Z" fill="#15384f" stroke="#15384f"></path><path d="M173 205.3L188 254.1L228 218.3Z" fill="#19435d" stroke="#19435d"></path><path d="M228 218.3L188 254.1L218 251.1Z" fill="#112e42" stroke="#112e42"></path><path d="M188 254.1L178 303L225 301Z" fill="#0c2435" stroke="#0c2435"></path><path d="M447 557.1L500 548.1L444 521.3Z" fill="#112e42" stroke="#112e42"></path><path d="M539 511.3L583 505.3L531 473.4Z" fill="#081a28" stroke="#081a28"></path><path d="M637 248.1L633 209.3L590 253.1Z" fill="#19435d" stroke="#19435d"></path><path d="M577 174.4L581 131.6L546 176.4Z" fill="#19435d" stroke="#19435d"></path><path d="M441 76.7L441 126.6L491 121.6Z" fill="#246688" stroke="#246688"></path><path d="M441 76.7L409 78.7L441 126.6Z" fill="#297ea6" stroke="#297ea6"></path><path d="M361 119.6L318 85.7L308 125.6Z" fill="#205a7a" stroke="#205a7a"></path><path d="M308 125.6L278 79.7L268 135.6Z" fill="#297ea6" stroke="#297ea6"></path><path d="M318 553.1L359 511.3L307 517.3Z" fill="#246688" stroke="#246688"></path><path d="M411 552.1L408 600L447 557.1Z" fill="#081a28" stroke="#081a28"></path><path d="M229 136.6L221 176.4L264 175.4Z" fill="#112e42" stroke="#112e42"></path><path d="M497 83.7L441 76.7L491 121.6Z" fill="#15384f" stroke="#15384f"></path><path d="M409 34.9L368 80.7L409 78.7Z" fill="#1d4e6b" stroke="#1d4e6b"></path><path d="M409 78.7L368 80.7L361 119.6Z" fill="#00101c" stroke="#00101c"></path><path d="M535 554.1L583 505.3L539 511.3Z" fill="#0c2435" stroke="#0c2435"></path><path d="M589 477.4L622 473.4L580 435.6Z" fill="#277297" stroke="#277297"></path><path d="M626 162.4L581 131.6L577 174.4Z" fill="#277297" stroke="#277297"></path><path d="M533 92.7L497 83.7L491 121.6Z" fill="#277297" stroke="#277297"></path><path d="M533 92.7L491 121.6L532 125.6Z" fill="#205a7a" stroke="#205a7a"></path><path d="M177 431.6L216 467.4L228 423.6Z" fill="#1d4e6b" stroke="#1d4e6b"></path><path d="M272 565.1L318 553.1L307 517.3Z" fill="#19435d" stroke="#19435d"></path><path d="M272 565.1L307 517.3L276 507.3Z" fill="#277297" stroke="#277297"></path><path d="M583 505.3L622 473.4L589 477.4Z" fill="#205a7a" stroke="#205a7a"></path><path d="M581 131.6L533 92.7L532 125.6Z" fill="#277297" stroke="#277297"></path><path d="M368 80.7L318 85.7L361 119.6Z" fill="#1d4e6b" stroke="#1d4e6b"></path><path d="M268 135.6L229 136.6L264 175.4Z" fill="#246688" stroke="#246688"></path><path d="M181 343.9L173 391.7L217 344.9Z" fill="#0c2435" stroke="#0c2435"></path><path d="M138 346.9L173 391.7L181 343.9Z" fill="#081a28" stroke="#081a28"></path><path d="M633 209.3L626 162.4L587 211.3Z" fill="#205a7a" stroke="#205a7a"></path><path d="M581 131.6L588 93.7L533 92.7Z" fill="#00101c" stroke="#00101c"></path><path d="M489 600L535 554.1L500 548.1Z" fill="#277297" stroke="#277297"></path><path d="M500 548.1L535 554.1L501 518.3Z" fill="#00101c" stroke="#00101c"></path><path d="M583 505.3L630 519.3L622 473.4Z" fill="#112e42" stroke="#112e42"></path><path d="M673 391.7L681 339.9L637 381.7Z" fill="#1d4e6b" stroke="#1d4e6b"></path><path d="M637 381.7L681 339.9L627 345.9Z" fill="#19435d" stroke="#19435d"></path><path d="M637 248.1L675 212.3L633 209.3Z" fill="#246688" stroke="#246688"></path><path d="M633 209.3L667 169.4L626 162.4Z" fill="#1d4e6b" stroke="#1d4e6b"></path><path d="M673 391.7L637 381.7L632 424.6Z" fill="#00101c" stroke="#00101c"></path><path d="M681 339.9L681 296L627 345.9Z" fill="#19435d" stroke="#19435d"></path><path d="M223 87.7L229 136.6L268 135.6Z" fill="#19435d" stroke="#19435d"></path><path d="M221 176.4L173 205.3L228 218.3Z" fill="#246688" stroke="#246688"></path><path d="M678 421.6L673 391.7L632 424.6Z" fill="#297ea6" stroke="#297ea6"></path><path d="M173 391.7L177 431.6L228 423.6Z" fill="#297ea6" stroke="#297ea6"></path><path d="M681 296L678 260.1L624 292Z" fill="#1d4e6b" stroke="#1d4e6b"></path><path d="M180 468.4L224 505.3L216 467.4Z" fill="#00101c" stroke="#00101c"></path><path d="M216 467.4L224 505.3L269 467.4Z" fill="#277297" stroke="#277297"></path><path d="M178 174.4L173 205.3L221 176.4Z" fill="#19435d" stroke="#19435d"></path><path d="M126 264.1L133 298L178 303Z" fill="#0c2435" stroke="#0c2435"></path><path d="M178 303L138 346.9L181 343.9Z" fill="#19435d" stroke="#19435d"></path><path d="M497 83.7L447 50.9L441 76.7Z" fill="#081a28" stroke="#081a28"></path><path d="M441 76.7L447 50.9L409 78.7Z" fill="#19435d" stroke="#19435d"></path><path d="M312 37.9L278 79.7L318 85.7Z" fill="#081a28" stroke="#081a28"></path><path d="M501 47.9L447 50.9L497 83.7Z" fill="#0c2435" stroke="#0c2435"></path><path d="M725 249.1L675 212.3L678 260.1Z" fill="#0c2435" stroke="#0c2435"></path><path d="M678 260.1L675 212.3L637 248.1Z" fill="#081a28" stroke="#081a28"></path><path d="M673 470.4L632 424.6L622 473.4Z" fill="#1d4e6b" stroke="#1d4e6b"></path><path d="M673 470.4L678 421.6L632 424.6Z" fill="#081a28" stroke="#081a28"></path><path d="M717 386.7L715 333.9L681 339.9Z" fill="#277297" stroke="#277297"></path><path d="M318 85.7L278 79.7L308 125.6Z" fill="#112e42" stroke="#112e42"></path><path d="M359 36.9L318 85.7L368 80.7Z" fill="#246688" stroke="#246688"></path><path d="M356 555.1L408 600L411 552.1Z" fill="#297ea6" stroke="#297ea6"></path><path d="M447 557.1L489 600L500 548.1Z" fill="#112e42" stroke="#112e42"></path><path d="M351 600L408 600L356 555.1Z" fill="#297ea6" stroke="#297ea6"></path><path d="M351 600L356 555.1L318 553.1Z" fill="#00101c" stroke="#00101c"></path><path d="M135 471.4L180 468.4L177 431.6Z" fill="#15384f" stroke="#15384f"></path><path d="M177 431.6L180 468.4L216 467.4Z" fill="#19435d" stroke="#19435d"></path><path d="M177 136.6L178 174.4L221 176.4Z" fill="#0c2435" stroke="#0c2435"></path><path d="M177 136.6L221 176.4L229 136.6Z" fill="#277297" stroke="#277297"></path><path d="M408 600L453 600L447 557.1Z" fill="#297ea6" stroke="#297ea6"></path><path d="M178 303L188 254.1L126 264.1Z" fill="#00101c" stroke="#00101c"></path><path d="M133 298L138 346.9L178 303Z" fill="#277297" stroke="#277297"></path><path d="M173 391.7L143 425.6L177 431.6Z" fill="#19435d" stroke="#19435d"></path><path d="M632 133.6L588 93.7L581 131.6Z" fill="#081a28" stroke="#081a28"></path><path d="M533 92.7L501 47.9L497 83.7Z" fill="#0c2435" stroke="#0c2435"></path><path d="M632 133.6L581 131.6L626 162.4Z" fill="#297ea6" stroke="#297ea6"></path><path d="M667 169.4L632 133.6L626 162.4Z" fill="#0c2435" stroke="#0c2435"></path><path d="M538 34.9L501 47.9L533 92.7Z" fill="#246688" stroke="#246688"></path><path d="M232 563.1L276 507.3L224 505.3Z" fill="#205a7a" stroke="#205a7a"></path><path d="M232 563.1L272 565.1L276 507.3Z" fill="#081a28" stroke="#081a28"></path><path d="M400 0L409 34.9L457 0Z" fill="#081a28" stroke="#081a28"></path><path d="M447 50.9L409 34.9L409 78.7Z" fill="#246688" stroke="#246688"></path><path d="M126 264.1L188 254.1L131 218.3Z" fill="#297ea6" stroke="#297ea6"></path><path d="M317 600L351 600L318 553.1Z" fill="#112e42" stroke="#112e42"></path><path d="M453 600L489 600L447 557.1Z" fill="#19435d" stroke="#19435d"></path><path d="M587 564.1L630 519.3L583 505.3Z" fill="#0c2435" stroke="#0c2435"></path><path d="M409 34.9L359 36.9L368 80.7Z" fill="#297ea6" stroke="#297ea6"></path><path d="M587 564.1L583 505.3L535 554.1Z" fill="#297ea6" stroke="#297ea6"></path><path d="M675 212.3L667 169.4L633 209.3Z" fill="#205a7a" stroke="#205a7a"></path><path d="M127 384.7L143 425.6L173 391.7Z" fill="#0c2435" stroke="#0c2435"></path><path d="M127 384.7L173 391.7L138 346.9Z" fill="#297ea6" stroke="#297ea6"></path><path d="M630 519.3L673 470.4L622 473.4Z" fill="#19435d" stroke="#19435d"></path><path d="M546 600L587 564.1L535 554.1Z" fill="#205a7a" stroke="#205a7a"></path><path d="M717 386.7L673 391.7L678 421.6Z" fill="#081a28" stroke="#081a28"></path><path d="M717 386.7L681 339.9L673 391.7Z" fill="#205a7a" stroke="#205a7a"></path><path d="M681 339.9L715 333.9L681 296Z" fill="#205a7a" stroke="#205a7a"></path><path d="M681 296L717 293L678 260.1Z" fill="#297ea6" stroke="#297ea6"></path><path d="M675 212.3L712 163.4L667 169.4Z" fill="#297ea6" stroke="#297ea6"></path><path d="M272 565.1L317 600L318 553.1Z" fill="#205a7a" stroke="#205a7a"></path><path d="M131 218.3L188 254.1L173 205.3Z" fill="#205a7a" stroke="#205a7a"></path><path d="M83 346.9L127 384.7L138 346.9Z" fill="#19435d" stroke="#19435d"></path><path d="M83 308L138 346.9L133 298Z" fill="#081a28" stroke="#081a28"></path><path d="M715 333.9L717 293L681 296Z" fill="#00101c" stroke="#00101c"></path><path d="M351 0L312 37.9L359 36.9Z" fill="#205a7a" stroke="#205a7a"></path><path d="M359 36.9L312 37.9L318 85.7Z" fill="#00101c" stroke="#00101c"></path><path d="M223 87.7L177 136.6L229 136.6Z" fill="#15384f" stroke="#15384f"></path><path d="M223 87.7L268 135.6L278 79.7Z" fill="#112e42" stroke="#112e42"></path><path d="M142 167.4L131 218.3L173 205.3Z" fill="#112e42" stroke="#112e42"></path><path d="M233 37.9L223 87.7L278 79.7Z" fill="#277297" stroke="#277297"></path><path d="M142 167.4L173 205.3L178 174.4Z" fill="#205a7a" stroke="#205a7a"></path><path d="M184 520.3L232 563.1L224 505.3Z" fill="#1d4e6b" stroke="#1d4e6b"></path><path d="M272 565.1L274 600L317 600Z" fill="#15384f" stroke="#15384f"></path><path d="M184 520.3L224 505.3L180 468.4Z" fill="#00101c" stroke="#00101c"></path><path d="M716 426.6L717 386.7L678 421.6Z" fill="#081a28" stroke="#081a28"></path><path d="M763 253.1L725 249.1L717 293Z" fill="#0c2435" stroke="#0c2435"></path><path d="M489 600L546 600L535 554.1Z" fill="#081a28" stroke="#081a28"></path><path d="M134 510.3L184 520.3L180 468.4Z" fill="#15384f" stroke="#15384f"></path><path d="M582 44.9L538 34.9L533 92.7Z" fill="#19435d" stroke="#19435d"></path><path d="M457 0L409 34.9L447 50.9Z" fill="#0c2435" stroke="#0c2435"></path><path d="M582 44.9L533 92.7L588 93.7Z" fill="#00101c" stroke="#00101c"></path><path d="M626 86.7L588 93.7L632 133.6Z" fill="#081a28" stroke="#081a28"></path><path d="M312 37.9L275 43.9L278 79.7Z" fill="#1d4e6b" stroke="#1d4e6b"></path><path d="M673 128.6L626 86.7L632 133.6Z" fill="#297ea6" stroke="#297ea6"></path><path d="M231 600L274 600L272 565.1Z" fill="#081a28" stroke="#081a28"></path><path d="M767 298L717 293L715 333.9Z" fill="#246688" stroke="#246688"></path><path d="M717 293L725 249.1L678 260.1Z" fill="#00101c" stroke="#00101c"></path><path d="M667 169.4L673 128.6L632 133.6Z" fill="#277297" stroke="#277297"></path><path d="M139 120.6L142 167.4L177 136.6Z" fill="#297ea6" stroke="#297ea6"></path><path d="M177 136.6L142 167.4L178 174.4Z" fill="#0c2435" stroke="#0c2435"></path><path d="M725 478.4L716 426.6L673 470.4Z" fill="#246688" stroke="#246688"></path><path d="M673 470.4L716 426.6L678 421.6Z" fill="#15384f" stroke="#15384f"></path><path d="M768 346.9L767 298L715 333.9Z" fill="#0c2435" stroke="#0c2435"></path><path d="M712 163.4L673 128.6L667 169.4Z" fill="#277297" stroke="#277297"></path><path d="M623 50.9L588 93.7L626 86.7Z" fill="#112e42" stroke="#112e42"></path><path d="M623 50.9L582 44.9L588 93.7Z" fill="#00101c" stroke="#00101c"></path><path d="M94 434.6L135 471.4L143 425.6Z" fill="#1d4e6b" stroke="#1d4e6b"></path><path d="M143 425.6L135 471.4L177 431.6Z" fill="#0c2435" stroke="#0c2435"></path><path d="M457 0L447 50.9L501 47.9Z" fill="#19435d" stroke="#19435d"></path><path d="M409 34.9L400 0L359 36.9Z" fill="#15384f" stroke="#15384f"></path><path d="M312 37.9L311 0L275 43.9Z" fill="#1d4e6b" stroke="#1d4e6b"></path><path d="M457 0L501 47.9L491 0Z" fill="#112e42" stroke="#112e42"></path><path d="M587 564.1L637 556.1L630 519.3Z" fill="#19435d" stroke="#19435d"></path><path d="M630 519.3L678 511.3L673 470.4Z" fill="#15384f" stroke="#15384f"></path><path d="M621 600L637 556.1L587 564.1Z" fill="#297ea6" stroke="#297ea6"></path><path d="M667 548.1L678 511.3L630 519.3Z" fill="#112e42" stroke="#112e42"></path><path d="M491 0L501 47.9L538 34.9Z" fill="#19435d" stroke="#19435d"></path><path d="M546 600L582 600L587 564.1Z" fill="#19435d" stroke="#19435d"></path><path d="M400 0L351 0L359 36.9Z" fill="#297ea6" stroke="#297ea6"></path><path d="M546 0L491 0L538 34.9Z" fill="#297ea6" stroke="#297ea6"></path><path d="M725 249.1L727 206.3L675 212.3Z" fill="#1d4e6b" stroke="#1d4e6b"></path><path d="M727 206.3L712 163.4L675 212.3Z" fill="#00101c" stroke="#00101c"></path><path d="M674 46.9L623 50.9L626 86.7Z" fill="#246688" stroke="#246688"></path><path d="M131 218.3L89 263.1L126 264.1Z" fill="#19435d" stroke="#19435d"></path><path d="M126 264.1L89 263.1L133 298Z" fill="#297ea6" stroke="#297ea6"></path><path d="M127 384.7L94 434.6L143 425.6Z" fill="#112e42" stroke="#112e42"></path><path d="M89 210.3L89 263.1L131 218.3Z" fill="#297ea6" stroke="#297ea6"></path><path d="M183 42.9L175 90.7L223 87.7Z" fill="#205a7a" stroke="#205a7a"></path><path d="M223 87.7L175 90.7L177 136.6Z" fill="#277297" stroke="#277297"></path><path d="M142 167.4L89 210.3L131 218.3Z" fill="#15384f" stroke="#15384f"></path><path d="M233 37.9L278 79.7L275 43.9Z" fill="#112e42" stroke="#112e42"></path><path d="M89 263.1L83 308L133 298Z" fill="#297ea6" stroke="#297ea6"></path><path d="M83 308L83 346.9L138 346.9Z" fill="#1d4e6b" stroke="#1d4e6b"></path><path d="M174 600L231 600L232 563.1Z" fill="#112e42" stroke="#112e42"></path><path d="M232 563.1L231 600L272 565.1Z" fill="#19435d" stroke="#19435d"></path><path d="M172 552.1L232 563.1L184 520.3Z" fill="#081a28" stroke="#081a28"></path><path d="M675 600L667 548.1L637 556.1Z" fill="#112e42" stroke="#112e42"></path><path d="M637 556.1L667 548.1L630 519.3Z" fill="#112e42" stroke="#112e42"></path><path d="M678 511.3L725 478.4L673 470.4Z" fill="#081a28" stroke="#081a28"></path><path d="M83 346.9L88 389.7L127 384.7Z" fill="#00101c" stroke="#00101c"></path><path d="M267 0L233 37.9L275 43.9Z" fill="#081a28" stroke="#081a28"></path><path d="M351 0L311 0L312 37.9Z" fill="#00101c" stroke="#00101c"></path><path d="M134 510.3L172 552.1L184 520.3Z" fill="#00101c" stroke="#00101c"></path><path d="M134 510.3L180 468.4L135 471.4Z" fill="#00101c" stroke="#00101c"></path><path d="M682 78.7L626 86.7L673 128.6Z" fill="#00101c" stroke="#00101c"></path><path d="M579 0L546 0L538 34.9Z" fill="#205a7a" stroke="#205a7a"></path><path d="M92 473.4L134 510.3L135 471.4Z" fill="#1d4e6b" stroke="#1d4e6b"></path><path d="M139 84.7L139 120.6L175 90.7Z" fill="#19435d" stroke="#19435d"></path><path d="M175 90.7L139 120.6L177 136.6Z" fill="#1d4e6b" stroke="#1d4e6b"></path><path d="M88 389.7L94 434.6L127 384.7Z" fill="#1d4e6b" stroke="#1d4e6b"></path><path d="M711 515.3L725 478.4L678 511.3Z" fill="#19435d" stroke="#19435d"></path><path d="M768 346.9L715 333.9L717 386.7Z" fill="#19435d" stroke="#19435d"></path><path d="M725 249.1L762 212.3L727 206.3Z" fill="#15384f" stroke="#15384f"></path><path d="M579 0L538 34.9L582 44.9Z" fill="#19435d" stroke="#19435d"></path><path d="M582 600L621 600L587 564.1Z" fill="#112e42" stroke="#112e42"></path><path d="M85 171.4L89 210.3L142 167.4Z" fill="#15384f" stroke="#15384f"></path><path d="M89 263.1L46 296L83 308Z" fill="#205a7a" stroke="#205a7a"></path><path d="M768 346.9L717 386.7L768 391.7Z" fill="#19435d" stroke="#19435d"></path><path d="M761 163.4L722 130.6L712 163.4Z" fill="#15384f" stroke="#15384f"></path><path d="M768 391.7L717 386.7L716 426.6Z" fill="#112e42" stroke="#112e42"></path><path d="M767 298L763 253.1L717 293Z" fill="#1d4e6b" stroke="#1d4e6b"></path><path d="M667 548.1L711 515.3L678 511.3Z" fill="#112e42" stroke="#112e42"></path><path d="M727 560.1L711 515.3L667 548.1Z" fill="#205a7a" stroke="#205a7a"></path><path d="M311 0L267 0L275 43.9Z" fill="#297ea6" stroke="#297ea6"></path><path d="M233 37.9L183 42.9L223 87.7Z" fill="#081a28" stroke="#081a28"></path><path d="M769 430.6L768 391.7L716 426.6Z" fill="#277297" stroke="#277297"></path><path d="M769 430.6L716 426.6L725 478.4Z" fill="#246688" stroke="#246688"></path><path d="M714 93.7L682 78.7L673 128.6Z" fill="#1d4e6b" stroke="#1d4e6b"></path><path d="M623 50.9L579 0L582 44.9Z" fill="#112e42" stroke="#112e42"></path><path d="M722 130.6L673 128.6L712 163.4Z" fill="#205a7a" stroke="#205a7a"></path><path d="M761 163.4L712 163.4L727 206.3Z" fill="#0c2435" stroke="#0c2435"></path><path d="M637 0L579 0L623 50.9Z" fill="#1d4e6b" stroke="#1d4e6b"></path><path d="M763 253.1L762 212.3L725 249.1Z" fill="#297ea6" stroke="#297ea6"></path><path d="M818 214.3L762 212.3L763 253.1Z" fill="#0c2435" stroke="#0c2435"></path><path d="M38 469.4L92 473.4L94 434.6Z" fill="#19435d" stroke="#19435d"></path><path d="M94 434.6L92 473.4L135 471.4Z" fill="#246688" stroke="#246688"></path><path d="M134 510.3L139 553.1L172 552.1Z" fill="#081a28" stroke="#081a28"></path><path d="M37 434.6L94 434.6L88 389.7Z" fill="#081a28" stroke="#081a28"></path><path d="M93 520.3L139 553.1L134 510.3Z" fill="#19435d" stroke="#19435d"></path><path d="M172 552.1L174 600L232 563.1Z" fill="#15384f" stroke="#15384f"></path><path d="M224 0L183 42.9L233 37.9Z" fill="#246688" stroke="#246688"></path><path d="M87 136.6L142 167.4L139 120.6Z" fill="#297ea6" stroke="#297ea6"></path><path d="M87 136.6L85 171.4L142 167.4Z" fill="#277297" stroke="#277297"></path><path d="M36 249.1L46 296L89 263.1Z" fill="#1d4e6b" stroke="#1d4e6b"></path><path d="M183 42.9L139 84.7L175 90.7Z" fill="#081a28" stroke="#081a28"></path><path d="M763 478.4L769 430.6L725 478.4Z" fill="#0c2435" stroke="#0c2435"></path><path d="M815 333.9L809 305L768 346.9Z" fill="#1d4e6b" stroke="#1d4e6b"></path><path d="M139 600L174 600L172 552.1Z" fill="#15384f" stroke="#15384f"></path><path d="M769 93.7L714 93.7L722 130.6Z" fill="#277297" stroke="#277297"></path><path d="M722 130.6L714 93.7L673 128.6Z" fill="#00101c" stroke="#00101c"></path><path d="M682 78.7L674 46.9L626 86.7Z" fill="#15384f" stroke="#15384f"></path><path d="M36 249.1L89 263.1L89 210.3Z" fill="#15384f" stroke="#15384f"></path><path d="M83 308L40 348.9L83 346.9Z" fill="#277297" stroke="#277297"></path><path d="M83 346.9L43 376.7L88 389.7Z" fill="#15384f" stroke="#15384f"></path><path d="M727 42.9L674 46.9L682 78.7Z" fill="#081a28" stroke="#081a28"></path><path d="M267 0L224 0L233 37.9Z" fill="#15384f" stroke="#15384f"></path><path d="M183 42.9L133 46.9L139 84.7Z" fill="#0c2435" stroke="#0c2435"></path><path d="M762 212.3L761 163.4L727 206.3Z" fill="#246688" stroke="#246688"></path><path d="M802 168.4L761 163.4L762 212.3Z" fill="#081a28" stroke="#081a28"></path><path d="M88 82.7L87 136.6L139 120.6Z" fill="#246688" stroke="#246688"></path><path d="M85 171.4L50 205.3L89 210.3Z" fill="#112e42" stroke="#112e42"></path><path d="M767 518.3L725 478.4L711 515.3Z" fill="#15384f" stroke="#15384f"></path><path d="M767 518.3L763 478.4L725 478.4Z" fill="#277297" stroke="#277297"></path><path d="M46 296L40 348.9L83 308Z" fill="#1d4e6b" stroke="#1d4e6b"></path><path d="M621 600L675 600L637 556.1Z" fill="#297ea6" stroke="#297ea6"></path><path d="M40 348.9L43 376.7L83 346.9Z" fill="#15384f" stroke="#15384f"></path><path d="M48 512.3L93 520.3L92 473.4Z" fill="#081a28" stroke="#081a28"></path><path d="M92 473.4L93 520.3L134 510.3Z" fill="#00101c" stroke="#00101c"></path><path d="M139 553.1L139 600L172 552.1Z" fill="#297ea6" stroke="#297ea6"></path><path d="M36 165.4L50 205.3L85 171.4Z" fill="#0c2435" stroke="#0c2435"></path><path d="M46 296L0 338.9L40 348.9Z" fill="#0c2435" stroke="#0c2435"></path><path d="M676 0L637 0L674 46.9Z" fill="#0c2435" stroke="#0c2435"></path><path d="M674 46.9L637 0L623 50.9Z" fill="#246688" stroke="#246688"></path><path d="M50 205.3L36 249.1L89 210.3Z" fill="#19435d" stroke="#19435d"></path><path d="M675 600L727 560.1L667 548.1Z" fill="#205a7a" stroke="#205a7a"></path><path d="M768 346.9L809 305L767 298Z" fill="#205a7a" stroke="#205a7a"></path><path d="M767 298L814 263.1L763 253.1Z" fill="#205a7a" stroke="#205a7a"></path><path d="M815 333.9L768 346.9L815 388.7Z" fill="#19435d" stroke="#19435d"></path><path d="M768 346.9L768 391.7L815 388.7Z" fill="#15384f" stroke="#15384f"></path><path d="M761 163.4L765 133.6L722 130.6Z" fill="#00101c" stroke="#00101c"></path><path d="M727 42.9L676 0L674 46.9Z" fill="#19435d" stroke="#19435d"></path><path d="M802 168.4L765 133.6L761 163.4Z" fill="#19435d" stroke="#19435d"></path><path d="M97 558.1L139 600L139 553.1Z" fill="#1d4e6b" stroke="#1d4e6b"></path><path d="M172 0L133 46.9L183 42.9Z" fill="#277297" stroke="#277297"></path><path d="M139 84.7L88 82.7L139 120.6Z" fill="#0c2435" stroke="#0c2435"></path><path d="M46 132.6L36 165.4L85 171.4Z" fill="#112e42" stroke="#112e42"></path><path d="M804 422.6L768 391.7L769 430.6Z" fill="#081a28" stroke="#081a28"></path><path d="M43 376.7L37 434.6L88 389.7Z" fill="#0c2435" stroke="#0c2435"></path><path d="M93 520.3L97 558.1L139 553.1Z" fill="#112e42" stroke="#112e42"></path><path d="M0 390.7L37 434.6L43 376.7Z" fill="#00101c" stroke="#00101c"></path><path d="M0 390.7L43 376.7L40 348.9Z" fill="#081a28" stroke="#081a28"></path><path d="M802 479.4L804 422.6L769 430.6Z" fill="#246688" stroke="#246688"></path><path d="M802 479.4L769 430.6L763 478.4Z" fill="#1d4e6b" stroke="#1d4e6b"></path><path d="M45 561.1L97 558.1L93 520.3Z" fill="#112e42" stroke="#112e42"></path><path d="M853 307L814 263.1L809 305Z" fill="#081a28" stroke="#081a28"></path><path d="M809 305L814 263.1L767 298Z" fill="#15384f" stroke="#15384f"></path><path d="M756 556.1L767 518.3L711 515.3Z" fill="#00101c" stroke="#00101c"></path><path d="M804 422.6L815 388.7L768 391.7Z" fill="#246688" stroke="#246688"></path><path d="M224 0L172 0L183 42.9Z" fill="#1d4e6b" stroke="#1d4e6b"></path><path d="M133 46.9L88 82.7L139 84.7Z" fill="#15384f" stroke="#15384f"></path><path d="M0 213.3L0 256.1L36 249.1Z" fill="#00101c" stroke="#00101c"></path><path d="M81 48.9L88 82.7L133 46.9Z" fill="#112e42" stroke="#112e42"></path><path d="M37 434.6L38 469.4L94 434.6Z" fill="#00101c" stroke="#00101c"></path><path d="M675 600L718 600L727 560.1Z" fill="#297ea6" stroke="#297ea6"></path><path d="M727 560.1L756 556.1L711 515.3Z" fill="#00101c" stroke="#00101c"></path><path d="M727 42.9L682 78.7L714 93.7Z" fill="#246688" stroke="#246688"></path><path d="M764 600L756 556.1L727 560.1Z" fill="#246688" stroke="#246688"></path><path d="M804 510.3L802 479.4L763 478.4Z" fill="#112e42" stroke="#112e42"></path><path d="M46 132.6L85 171.4L87 136.6Z" fill="#15384f" stroke="#15384f"></path><path d="M818 214.3L802 168.4L762 212.3Z" fill="#205a7a" stroke="#205a7a"></path><path d="M757 45.9L727 42.9L714 93.7Z" fill="#15384f" stroke="#15384f"></path><path d="M854 248.1L818 214.3L814 263.1Z" fill="#0c2435" stroke="#0c2435"></path><path d="M814 263.1L818 214.3L763 253.1Z" fill="#277297" stroke="#277297"></path><path d="M853 307L809 305L815 333.9Z" fill="#081a28" stroke="#081a28"></path><path d="M769 93.7L722 130.6L765 133.6Z" fill="#0c2435" stroke="#0c2435"></path><path d="M804 510.3L763 478.4L767 518.3Z" fill="#081a28" stroke="#081a28"></path><path d="M857 380.7L857 348.9L815 388.7Z" fill="#19435d" stroke="#19435d"></path><path d="M38 469.4L48 512.3L92 473.4Z" fill="#246688" stroke="#246688"></path><path d="M97 558.1L85 600L139 600Z" fill="#19435d" stroke="#19435d"></path><path d="M88 82.7L46 132.6L87 136.6Z" fill="#081a28" stroke="#081a28"></path><path d="M818 131.6L769 93.7L765 133.6Z" fill="#297ea6" stroke="#297ea6"></path><path d="M0 291L46 296L36 249.1Z" fill="#00101c" stroke="#00101c"></path><path d="M0 291L0 338.9L46 296Z" fill="#1d4e6b" stroke="#1d4e6b"></path><path d="M37 434.6L0 469.4L38 469.4Z" fill="#246688" stroke="#246688"></path><path d="M38 469.4L0 521.3L48 512.3Z" fill="#0c2435" stroke="#0c2435"></path><path d="M0 256.1L0 291L36 249.1Z" fill="#246688" stroke="#246688"></path><path d="M0 213.3L36 249.1L50 205.3Z" fill="#205a7a" stroke="#205a7a"></path><path d="M0 213.3L50 205.3L0 174.4Z" fill="#1d4e6b" stroke="#1d4e6b"></path><path d="M0 338.9L0 390.7L40 348.9Z" fill="#15384f" stroke="#15384f"></path><path d="M172 0L137 0L133 46.9Z" fill="#112e42" stroke="#112e42"></path><path d="M88 82.7L45 82.7L46 132.6Z" fill="#205a7a" stroke="#205a7a"></path><path d="M806 548.1L767 518.3L756 556.1Z" fill="#081a28" stroke="#081a28"></path><path d="M806 548.1L804 510.3L767 518.3Z" fill="#246688" stroke="#246688"></path><path d="M857 380.7L815 388.7L856 435.6Z" fill="#112e42" stroke="#112e42"></path><path d="M0 390.7L0 421.6L37 434.6Z" fill="#15384f" stroke="#15384f"></path><path d="M0 174.4L50 205.3L36 165.4Z" fill="#246688" stroke="#246688"></path><path d="M90 0L81 48.9L133 46.9Z" fill="#297ea6" stroke="#297ea6"></path><path d="M0 134.6L0 174.4L36 165.4Z" fill="#1d4e6b" stroke="#1d4e6b"></path><path d="M857 348.9L853 307L815 333.9Z" fill="#112e42" stroke="#112e42"></path><path d="M863 171.4L818 131.6L802 168.4Z" fill="#112e42" stroke="#112e42"></path><path d="M857 348.9L815 333.9L815 388.7Z" fill="#15384f" stroke="#15384f"></path><path d="M45 561.1L85 600L97 558.1Z" fill="#205a7a" stroke="#205a7a"></path><path d="M45 561.1L93 520.3L48 512.3Z" fill="#1d4e6b" stroke="#1d4e6b"></path><path d="M769 93.7L757 45.9L714 93.7Z" fill="#297ea6" stroke="#297ea6"></path><path d="M727 42.9L724 0L676 0Z" fill="#0c2435" stroke="#0c2435"></path><path d="M817 46.9L757 45.9L769 93.7Z" fill="#081a28" stroke="#081a28"></path><path d="M818 131.6L765 133.6L802 168.4Z" fill="#112e42" stroke="#112e42"></path><path d="M815 388.7L804 422.6L856 435.6Z" fill="#081a28" stroke="#081a28"></path><path d="M900 298L854 248.1L853 307Z" fill="#1d4e6b" stroke="#1d4e6b"></path><path d="M853 307L854 248.1L814 263.1Z" fill="#246688" stroke="#246688"></path><path d="M853 206.3L802 168.4L818 214.3Z" fill="#277297" stroke="#277297"></path><path d="M53 49.9L45 82.7L88 82.7Z" fill="#1d4e6b" stroke="#1d4e6b"></path><path d="M856 435.6L804 422.6L857 464.4Z" fill="#1d4e6b" stroke="#1d4e6b"></path><path d="M757 45.9L724 0L727 42.9Z" fill="#205a7a" stroke="#205a7a"></path><path d="M0 134.6L36 165.4L46 132.6Z" fill="#205a7a" stroke="#205a7a"></path><path d="M0 421.6L0 469.4L37 434.6Z" fill="#277297" stroke="#277297"></path><path d="M0 521.3L45 561.1L48 512.3Z" fill="#0c2435" stroke="#0c2435"></path><path d="M718 600L764 600L727 560.1Z" fill="#081a28" stroke="#081a28"></path><path d="M863 171.4L853 206.3L900 207.3Z" fill="#246688" stroke="#246688"></path><path d="M854 248.1L853 206.3L818 214.3Z" fill="#15384f" stroke="#15384f"></path><path d="M764 600L806 548.1L756 556.1Z" fill="#205a7a" stroke="#205a7a"></path><path d="M857 464.4L804 422.6L802 479.4Z" fill="#19435d" stroke="#19435d"></path><path d="M857 464.4L802 479.4L804 510.3Z" fill="#0c2435" stroke="#0c2435"></path><path d="M81 48.9L53 49.9L88 82.7Z" fill="#19435d" stroke="#19435d"></path><path d="M0 91.7L0 134.6L46 132.6Z" fill="#081a28" stroke="#081a28"></path><path d="M45 0L53 49.9L81 48.9Z" fill="#081a28" stroke="#081a28"></path><path d="M0 91.7L46 132.6L45 82.7Z" fill="#277297" stroke="#277297"></path><path d="M137 0L90 0L133 46.9Z" fill="#19435d" stroke="#19435d"></path><path d="M850 87.7L815 89.7L818 131.6Z" fill="#297ea6" stroke="#297ea6"></path><path d="M818 131.6L815 89.7L769 93.7Z" fill="#0c2435" stroke="#0c2435"></path><path d="M757 45.9L769 0L724 0Z" fill="#112e42" stroke="#112e42"></path><path d="M861 519.3L857 464.4L804 510.3Z" fill="#00101c" stroke="#00101c"></path><path d="M900 382.7L857 348.9L857 380.7Z" fill="#0c2435" stroke="#0c2435"></path><path d="M0 469.4L0 521.3L38 469.4Z" fill="#112e42" stroke="#112e42"></path><path d="M45 561.1L46 600L85 600Z" fill="#00101c" stroke="#00101c"></path><path d="M0 600L46 600L45 561.1Z" fill="#205a7a" stroke="#205a7a"></path><path d="M853 206.3L863 171.4L802 168.4Z" fill="#246688" stroke="#246688"></path><path d="M900 207.3L853 206.3L854 248.1Z" fill="#112e42" stroke="#112e42"></path><path d="M900 339.9L853 307L857 348.9Z" fill="#0c2435" stroke="#0c2435"></path><path d="M900 339.9L857 348.9L900 382.7Z" fill="#277297" stroke="#277297"></path><path d="M817 46.9L769 93.7L815 89.7Z" fill="#246688" stroke="#246688"></path><path d="M817 46.9L769 0L757 45.9Z" fill="#00101c" stroke="#00101c"></path><path d="M0 43.9L45 82.7L53 49.9Z" fill="#205a7a" stroke="#205a7a"></path><path d="M0 43.9L0 91.7L45 82.7Z" fill="#277297" stroke="#277297"></path><path d="M863 171.4L859 136.6L818 131.6Z" fill="#246688" stroke="#246688"></path><path d="M900 382.7L857 380.7L900 423.6Z" fill="#205a7a" stroke="#205a7a"></path><path d="M863 171.4L900 162.4L859 136.6Z" fill="#081a28" stroke="#081a28"></path><path d="M900 339.9L900 298L853 307Z" fill="#081a28" stroke="#081a28"></path><path d="M0 521.3L0 561.1L45 561.1Z" fill="#205a7a" stroke="#205a7a"></path><path d="M850 87.7L817 46.9L815 89.7Z" fill="#1d4e6b" stroke="#1d4e6b"></path><path d="M806 548.1L861 519.3L804 510.3Z" fill="#205a7a" stroke="#205a7a"></path><path d="M900 423.6L857 380.7L856 435.6Z" fill="#297ea6" stroke="#297ea6"></path><path d="M764 600L814 600L806 548.1Z" fill="#00101c" stroke="#00101c"></path><path d="M862 551.1L861 519.3L806 548.1Z" fill="#205a7a" stroke="#205a7a"></path><path d="M900 423.6L856 435.6L900 470.4Z" fill="#00101c" stroke="#00101c"></path><path d="M900 298L900 254.1L854 248.1Z" fill="#277297" stroke="#277297"></path><path d="M900 125.6L850 87.7L859 136.6Z" fill="#297ea6" stroke="#297ea6"></path><path d="M859 136.6L850 87.7L818 131.6Z" fill="#1d4e6b" stroke="#1d4e6b"></path><path d="M90 0L45 0L81 48.9Z" fill="#1d4e6b" stroke="#1d4e6b"></path><path d="M900 470.4L856 435.6L857 464.4Z" fill="#1d4e6b" stroke="#1d4e6b"></path><path d="M900 254.1L900 207.3L854 248.1Z" fill="#19435d" stroke="#19435d"></path><path d="M814 600L862 551.1L806 548.1Z" fill="#112e42" stroke="#112e42"></path><path d="M861 519.3L900 470.4L857 464.4Z" fill="#277297" stroke="#277297"></path><path d="M45 0L0 43.9L53 49.9Z" fill="#277297" stroke="#277297"></path><path d="M0 561.1L0 600L45 561.1Z" fill="#00101c" stroke="#00101c"></path><path d="M817 46.9L807 0L769 0Z" fill="#00101c" stroke="#00101c"></path><path d="M846 35.9L807 0L817 46.9Z" fill="#297ea6" stroke="#297ea6"></path><path d="M900 513.3L900 470.4L861 519.3Z" fill="#081a28" stroke="#081a28"></path><path d="M900 207.3L900 162.4L863 171.4Z" fill="#1d4e6b" stroke="#1d4e6b"></path><path d="M850 87.7L846 35.9L817 46.9Z" fill="#00101c" stroke="#00101c"></path><path d="M900 40.9L846 35.9L850 87.7Z" fill="#1d4e6b" stroke="#1d4e6b"></path><path d="M814 600L855 600L862 551.1Z" fill="#0c2435" stroke="#0c2435"></path><path d="M900 555.1L900 513.3L861 519.3Z" fill="#297ea6" stroke="#297ea6"></path><path d="M900 555.1L861 519.3L862 551.1Z" fill="#0c2435" stroke="#0c2435"></path><path d="M900 162.4L900 125.6L859 136.6Z" fill="#0c2435" stroke="#0c2435"></path><path d="M45 0L0 0L0 43.9Z" fill="#1d4e6b" stroke="#1d4e6b"></path><path d="M900 125.6L900 90.7L850 87.7Z" fill="#205a7a" stroke="#205a7a"></path><path d="M900 600L900 555.1L862 551.1Z" fill="#0c2435" stroke="#0c2435"></path><path d="M900 40.9L853 0L846 35.9Z" fill="#081a28" stroke="#081a28"></path><path d="M846 35.9L853 0L807 0Z" fill="#1d4e6b" stroke="#1d4e6b"></path><path d="M855 600L900 600L862 551.1Z" fill="#00101c" stroke="#00101c"></path><path d="M900 90.7L900 40.9L850 87.7Z" fill="#297ea6" stroke="#297ea6"></path><path d="M900 40.9L900 0L853 0Z" fill="#277297" stroke="#277297"></path></g></svg>